<svg width="253" height="52" viewBox="0 0 253 52" fill="none" xmlns="http://www.w3.org/2000/svg">
<g filter="url(#filter0_d_1_15)">
<path d="M60.8 15.504H50.816V23.424H57.056V26.496H50.816V42H47.456V15.504L46.496 12.432H60.8V15.504ZM67.8181 12.432V16.032H64.4101V12.432H67.8181ZM67.6261 20.4V42H64.6021V23.424L63.5941 20.4H67.6261ZM76.3393 10.56V29.568C76.3393 31.328 76.4193 32.816 76.5793 34.032C76.7713 35.216 77.2033 36.272 77.8753 37.2C78.5473 38.128 79.6193 39.04 81.0913 39.936L79.5073 42.48C77.7473 41.552 76.4193 40.512 75.5233 39.36C74.6273 38.176 74.0193 36.8 73.6992 35.232C73.4113 33.664 73.2673 31.776 73.2673 29.568V13.584L72.3073 10.56H76.3393ZM82.9948 23.088C84.7548 22.032 86.7068 21.248 88.8508 20.736C90.9948 20.192 93.2348 19.92 95.5708 19.92C96.1468 19.92 96.9628 19.968 98.0188 20.064C99.0748 20.16 100.179 20.384 101.331 20.736C102.515 21.088 103.539 21.68 104.403 22.512C105.619 23.664 106.339 24.976 106.563 26.448C106.819 27.888 106.947 29.264 106.947 30.576V42H103.923V32.256C103.923 31.456 103.907 30.592 103.875 29.664C103.843 28.704 103.715 27.792 103.491 26.928C103.267 26.032 102.851 25.28 102.243 24.672C101.667 24.064 100.883 23.6 99.8908 23.28C98.8988 22.96 98.0028 22.8 97.2028 22.8V42H94.1308V22.8C93.0108 22.8 91.8588 22.912 90.6748 23.136C89.5228 23.328 88.4348 23.648 87.4108 24.096V42H84.3388V25.44L82.9948 23.088ZM124.123 24.336C123.227 23.888 122.347 23.536 121.483 23.28C120.651 23.024 119.691 22.896 118.603 22.896C117.547 22.896 116.635 23.104 115.867 23.52C115.131 23.936 114.763 24.704 114.763 25.824C114.763 26.688 115.051 27.376 115.627 27.888C116.203 28.368 116.907 28.816 117.739 29.232L120.907 30.768C122.315 31.44 123.419 32.224 124.219 33.12C125.019 33.984 125.419 35.056 125.419 36.336V37.44L127.051 39.408C125.675 40.688 124.219 41.52 122.683 41.904C121.147 42.288 119.675 42.48 118.267 42.48C116.891 42.48 115.643 42.352 114.523 42.096C113.403 41.872 112.459 41.6 111.691 41.28V38.208C112.587 38.592 113.515 38.928 114.475 39.216C115.467 39.472 116.699 39.6 118.171 39.6C119.035 39.6 119.835 39.504 120.571 39.312C121.339 39.12 121.931 38.864 122.347 38.544V37.584C122.347 36.624 122.139 35.84 121.723 35.232C121.339 34.592 120.539 33.968 119.323 33.36L115.627 31.536C114.571 30.992 113.643 30.304 112.843 29.472C112.075 28.64 111.691 27.424 111.691 25.824C111.691 24.032 112.299 22.608 113.515 21.552C114.763 20.464 116.459 19.92 118.603 19.92C119.979 19.92 121.227 20.08 122.347 20.4C123.499 20.72 124.507 21.136 125.371 21.648L124.123 24.336ZM148.576 11.952C150.816 11.952 152.576 12.464 153.856 13.488C155.168 14.48 156.096 15.808 156.64 17.472C157.184 19.136 157.456 20.992 157.456 23.04V36.384L159.184 38.592C158.128 39.488 156.736 40.368 155.008 41.232C153.28 42.064 151.136 42.48 148.576 42.48C146.24 42.48 144.352 42.16 142.912 41.52C141.504 40.88 140.432 40.304 139.696 39.792V23.04C139.696 20.992 139.968 19.136 140.512 17.472C141.056 15.808 141.968 14.48 143.248 13.488C144.56 12.464 146.336 11.952 148.576 11.952ZM148.576 39.408C150.848 39.408 152.688 38.912 154.096 37.92V23.04C154.096 21.728 153.952 20.464 153.664 19.248C153.376 18.032 152.832 17.024 152.032 16.224C151.264 15.424 150.112 15.024 148.576 15.024C147.04 15.024 145.872 15.424 145.072 16.224C144.304 17.024 143.776 18.032 143.488 19.248C143.2 20.464 143.056 21.728 143.056 23.04V37.92C144.464 38.912 146.304 39.408 148.576 39.408ZM162.592 22.128C163.424 21.616 164.528 21.12 165.904 20.64C167.28 20.16 168.928 19.92 170.848 19.92C171.68 19.92 172.56 20.016 173.488 20.208C174.448 20.368 175.36 20.72 176.224 21.264C177.088 21.776 177.792 22.592 178.336 23.712C178.56 24.192 178.72 24.768 178.816 25.44C178.944 26.112 179.04 26.992 179.104 28.08C179.168 29.136 179.2 30.528 179.2 32.256V42H176.128V32.16C176.128 30.048 176.064 28.448 175.936 27.36C175.84 26.24 175.6 25.376 175.216 24.768C174.928 24.32 174.432 23.888 173.728 23.472C173.056 23.024 172.032 22.8 170.656 22.8C169.888 22.8 169.184 22.864 168.544 22.992C167.904 23.12 167.312 23.296 166.768 23.52V42H163.696V24.48L162.592 22.128ZM187.667 10.56V29.568C187.667 31.328 187.747 32.816 187.907 34.032C188.099 35.216 188.531 36.272 189.203 37.2C189.875 38.128 190.947 39.04 192.419 39.936L190.835 42.48C189.075 41.552 187.747 40.512 186.851 39.36C185.955 38.176 185.347 36.8 185.027 35.232C184.739 33.664 184.595 31.776 184.595 29.568V13.584L183.635 10.56H187.667ZM198.787 12.432V16.032H195.379V12.432H198.787ZM198.595 20.4V42H195.571V23.424L194.563 20.4H198.595ZM203.42 22.128C204.252 21.616 205.356 21.12 206.732 20.64C208.108 20.16 209.756 19.92 211.676 19.92C212.508 19.92 213.388 20.016 214.316 20.208C215.276 20.368 216.188 20.72 217.052 21.264C217.916 21.776 218.62 22.592 219.164 23.712C219.388 24.192 219.548 24.768 219.644 25.44C219.772 26.112 219.868 26.992 219.932 28.08C219.996 29.136 220.028 30.528 220.028 32.256V42H216.956V32.16C216.956 30.048 216.892 28.448 216.764 27.36C216.668 26.24 216.428 25.376 216.044 24.768C215.756 24.32 215.26 23.888 214.556 23.472C213.884 23.024 212.86 22.8 211.484 22.8C210.716 22.8 210.012 22.864 209.372 22.992C208.732 23.12 208.14 23.296 207.596 23.52V42H204.524V24.48L203.42 22.128ZM228.448 32.064V38.352C229.184 38.864 229.984 39.2 230.848 39.36C231.712 39.52 232.512 39.6 233.248 39.6C234.624 39.6 235.856 39.456 236.944 39.168C238.064 38.848 239.136 38.336 240.16 37.632V40.848C239.2 41.424 238.144 41.84 236.992 42.096C235.872 42.352 234.656 42.48 233.344 42.48C231.296 42.48 229.488 42.192 227.92 41.616C226.384 41.04 224.976 40.192 223.696 39.072L225.376 37.104V29.28C225.376 28.672 225.376 27.952 225.376 27.12C225.408 26.288 225.552 25.424 225.808 24.528C226.064 23.632 226.528 22.8 227.2 22.032C228.064 21.072 228.992 20.48 229.984 20.256C231.008 20.032 231.92 19.92 232.72 19.92C233.552 19.92 234.464 20.032 235.456 20.256C236.48 20.48 237.408 21.072 238.24 22.032C238.912 22.8 239.376 23.632 239.632 24.528C239.92 25.424 240.08 26.288 240.112 27.12C240.144 27.952 240.16 28.672 240.16 29.28V32.064H228.448ZM236.799 29.184C236.799 28.48 236.768 27.68 236.704 26.784C236.64 25.888 236.384 25.104 235.936 24.432C235.744 24.112 235.392 23.76 234.88 23.376C234.368 22.992 233.616 22.8 232.624 22.8C231.664 22.8 230.912 22.992 230.368 23.376C229.856 23.76 229.488 24.112 229.264 24.432C228.848 25.104 228.608 25.888 228.544 26.784C228.48 27.68 228.448 28.48 228.448 29.184H236.799ZM248.803 37.968V42H244.771V37.968H248.803Z" fill="#FCFCFC"/>
</g>
<path d="M32.956 22.6957C32.48 21.5635 31.9375 20.2807 31.4107 18.697C30.0282 14.5512 34.4452 10.0292 34.4872 9.98725L32.0127 7.51275C31.7677 7.75775 26.0225 13.5992 28.0892 19.803C28.6597 21.5145 29.2302 22.8655 29.7307 24.0555C30.8986 26.363 31.5049 28.9138 31.5 31.5C31.2949 33.5846 30.4946 35.5662 29.1945 37.2085C27.8944 38.8509 26.1494 40.0847 24.1675 40.7627C24.7936 38.3087 24.7843 35.7356 24.1404 33.2862C23.4965 30.8367 22.2392 28.5917 20.4872 26.7627L18.6602 24.9357L17.6417 27.3105C14.4287 34.8075 10.605 38.08 8.35625 39.445C6.97576 38.5995 5.8157 37.4385 4.97145 36.0572C4.1272 34.676 3.62289 33.1141 3.5 31.5C3.62072 29.297 4.17309 27.1392 5.12575 25.1492C6.25556 22.7504 6.89287 20.1494 7 17.5V14.3885C8.5295 15.0185 10.5 16.6687 10.5 21V25.5552L13.5502 22.1707C18.9962 16.1262 17.8605 8.9285 15.6607 4.13175C17.3329 4.68912 18.7688 5.79297 19.7373 7.26558C20.7058 8.73819 21.1506 10.4939 21 12.25H24.5C24.5 2.56025 16.4867 0 12.25 0H8.75L10.85 2.79825C11.0897 3.122 15.8585 9.6705 13.2177 16.2522C12.6301 14.5983 11.5532 13.1622 10.13 12.1348C8.7069 11.1074 7.00487 10.5372 5.25 10.5H3.5V17.5C3.37928 19.703 2.8269 21.8607 1.87425 23.8507C0.744443 26.2496 0.10713 28.8506 0 31.5C0 38.234 6.69025 45.5 17.5 45.5C28.3097 45.5 35 38.234 35 31.5C35.0026 28.4474 34.3033 25.435 32.956 22.6957ZM11.9612 41.1705C13.6238 39.7943 15.1218 38.2401 16.4305 36.5398C17.6629 34.9387 18.7275 33.2079 19.6035 31.374C20.5678 32.9311 21.1157 34.71 21.1945 36.5398C21.2732 38.3697 20.8802 40.189 20.0532 41.8232C19.2069 41.9371 18.354 41.9962 17.5 42C15.6219 42.013 13.7532 41.7331 11.9612 41.1705Z" fill="#633CFF"/>
<defs>
<filter id="filter0_d_1_15" x="42.496" y="10.56" width="210.307" height="39.92" filterUnits="userSpaceOnUse" color-interpolation-filters="sRGB">
<feFlood flood-opacity="0" result="BackgroundImageFix"/>
<feColorMatrix in="SourceAlpha" type="matrix" values="0 0 0 0 0 0 0 0 0 0 0 0 0 0 0 0 0 0 127 0" result="hardAlpha"/>
<feOffset dy="4"/>
<feGaussianBlur stdDeviation="2"/>
<feComposite in2="hardAlpha" operator="out"/>
<feColorMatrix type="matrix" values="0 0 0 0 0 0 0 0 0 0 0 0 0 0 0 0 0 0 0.25 0"/>
<feBlend mode="normal" in2="BackgroundImageFix" result="effect1_dropShadow_1_15"/>
<feBlend mode="normal" in="SourceGraphic" in2="effect1_dropShadow_1_15" result="shape"/>
</filter>
</defs>
</svg>
